<svg version="1.1" id="Layer_1" xmlns="http://www.w3.org/2000/svg" xmlns:xlink="http://www.w3.org/1999/xlink" x="0px" y="0px"
	 width="100%" viewBox="0 0 2038 971" enable-background="new 0 0 2038 971" xml:space="preserve">
<path fill="none" opacity="1.000000" stroke="none" 
	d="
M1367.000000,972.000000 
	C911.333435,972.000000 456.166840,972.000000 1.000183,972.000000 
	C1.000122,648.333496 1.000122,324.666931 1.000061,1.000209 
	C2.166527,1.000000 3.333054,1.000000 4.499581,1.000000 
	C682.666138,1.000000 1360.832764,1.000000 2038.999512,1.000000 
	C2038.999634,324.666351 2038.999634,648.332703 2038.999756,971.999512 
	C1815.166626,972.000000 1591.333374,972.000000 1367.000000,972.000000 
M1566.962158,805.523376 
	C1567.100464,805.813843 1567.238770,806.104370 1567.377075,806.394836 
	C1567.254639,805.927795 1567.132202,805.460815 1566.969238,804.394958 
	C1566.655884,803.922607 1566.342651,803.450256 1565.450439,802.365295 
	C1563.801636,802.243530 1562.152954,802.015198 1560.504150,802.015076 
	C1353.523804,801.999146 1146.543579,802.000000 939.563232,802.000000 
	C938.070923,802.000000 936.578674,802.000000 935.086365,802.000000 
	C935.091553,802.333313 935.096741,802.666687 935.101929,803.000000 
	C937.070984,803.000000 939.040100,803.000000 941.009155,803.000000 
	C1099.660767,803.000000 1258.312256,802.996216 1416.963867,803.002197 
	C1466.625366,803.004028 1516.286987,803.032166 1565.952148,803.649963 
	C1566.297241,804.104065 1566.642334,804.558228 1566.962158,805.523376 
M252.160080,245.651062 
	C252.430374,246.066483 252.744980,246.459808 252.964676,246.900452 
	C304.197083,349.658142 355.379272,452.440857 406.661224,555.173767 
	C456.551392,655.118530 506.543427,755.012390 556.491028,854.928528 
	C571.004150,883.960754 585.461609,913.021301 600.149231,941.964966 
	C601.221069,944.077271 603.954956,946.777527 605.930969,946.789612 
	C650.589050,947.064026 695.249268,947.034180 739.908386,946.871948 
	C741.610413,946.865784 743.972595,945.384033 744.904480,943.889709 
	C760.063232,919.582214 775.009949,895.142761 790.066162,870.771118 
	C810.025330,838.463013 830.050659,806.195862 850.023315,773.896118 
	C864.054810,751.204468 878.018738,728.470947 892.063110,705.787292 
	C904.991821,684.905701 918.194946,664.189514 930.793579,643.111511 
	C933.598022,638.419556 936.488464,636.896240 941.744019,636.899353 
	C1147.902222,637.019775 1354.060547,637.001709 1560.218750,637.001770 
	C1561.385376,637.001770 1562.676025,636.682373 1563.690430,637.075439 
	C1565.325562,637.709106 1567.377319,638.441528 1568.207520,639.780518 
	C1572.347290,646.456604 1576.102417,653.369629 1580.072266,660.152893 
	C1596.036011,687.430054 1612.038208,714.684631 1628.008545,741.957947 
	C1647.371460,775.024902 1666.675293,808.126404 1686.080566,841.168518 
	C1705.987305,875.064453 1726.078247,908.852844 1745.797363,942.857239 
	C1747.734985,946.198669 1749.571289,947.069824 1753.055664,947.061157 
	C1791.717896,946.965454 1830.380615,947.003662 1869.043091,946.990662 
	C1870.625610,946.990173 1872.208252,946.840088 1874.568359,946.720154 
	C1873.431396,944.210022 1872.740112,942.226562 1871.696167,940.450623 
	C1862.153931,924.218079 1852.482666,908.061279 1842.980835,891.805359 
	C1828.516968,867.060181 1814.224487,842.214844 1799.737305,817.483521 
	C1784.258301,791.059265 1768.582397,764.750427 1753.096436,738.330383 
	C1741.257690,718.132751 1729.634888,697.808594 1717.817993,677.598145 
	C1703.267822,652.713013 1688.604370,627.894043 1674.011719,603.033691 
	C1663.401978,584.958740 1652.850952,566.849304 1642.230835,548.780457 
	C1631.695435,530.856201 1621.050903,512.996033 1610.556396,495.047913 
	C1599.478638,476.101837 1588.581177,457.050323 1577.496826,438.108032 
	C1563.187500,413.654266 1548.771973,389.262543 1534.399658,364.845459 
	C1523.434692,346.216705 1512.444458,327.602783 1501.505371,308.958832 
	C1491.232788,291.450745 1480.991943,273.924011 1470.774414,256.383667 
	C1459.644043,237.275909 1448.608887,218.112610 1437.435425,199.030167 
	C1426.928711,181.086288 1416.241943,163.247757 1405.732422,145.305466 
	C1393.645630,124.670425 1381.645630,103.984413 1369.662720,83.288849 
	C1367.859619,80.174767 1365.692017,78.875427 1361.794800,78.884613 
	C1293.964600,79.044586 1226.133789,79.044365 1158.303467,78.910271 
	C1153.235229,78.900253 1150.259766,79.947380 1147.321899,84.819733 
	C1130.923828,112.015327 1113.818726,138.783463 1097.100708,165.787781 
	C1077.632935,197.234009 1058.348389,228.793777 1038.922607,260.266174 
	C1018.973999,292.585480 998.951477,324.859161 978.960327,357.152222 
	C958.971375,389.441833 938.972839,421.725464 918.994080,454.021393 
	C900.650818,483.673584 882.329773,513.339478 863.996399,542.997742 
	C848.329285,568.342651 832.668030,593.691223 816.986633,619.027283 
	C803.026611,641.582214 789.022034,664.109497 775.074768,686.672241 
	C760.706177,709.916626 746.407898,733.204407 732.033142,756.445007 
	C717.736450,779.559570 703.375122,802.634216 689.059937,825.737305 
	C685.615112,831.296814 682.331238,836.958008 678.801331,842.462097 
	C676.553650,845.966980 674.945740,845.772522 673.019836,842.059875 
	C672.642212,841.331787 672.329834,840.570068 671.962769,839.836182 
	C546.078918,588.120117 420.184479,336.409271 294.395355,84.645828 
	C292.672363,81.197327 290.907257,79.879715 286.968933,79.897507 
	C249.637878,80.066132 212.305771,79.994728 174.973953,80.008759 
	C173.400848,80.009354 171.827805,80.170250 169.780197,80.282478 
	C170.659378,82.090805 171.276993,83.391846 171.920380,84.680023 
	C191.814331,124.510742 211.739334,164.325989 231.590729,204.177902 
	C238.172195,217.390305 244.565216,230.696548 250.101929,243.988007 
	C222.862839,243.988007 195.623749,243.988007 166.507248,243.988007 
	C245.860245,402.705505 324.514496,560.025452 403.168762,717.345398 
	C403.568146,717.146790 403.967499,716.948242 404.366852,716.749695 
	C325.898071,559.801575 247.429276,402.853424 168.511673,245.007614 
	C196.988724,245.007614 224.413712,245.007614 252.160080,245.651062 
z"/>
<path fill="#ffffff" opacity="1.000000" stroke="none" 
	d="
M251.044403,243.959900 
	C244.565216,230.696548 238.172195,217.390305 231.590729,204.177902 
	C211.739334,164.325989 191.814331,124.510742 171.920380,84.680023 
	C171.276993,83.391846 170.659378,82.090805 169.780197,80.282478 
	C171.827805,80.170250 173.400848,80.009354 174.973953,80.008759 
	C212.305771,79.994728 249.637878,80.066132 286.968933,79.897507 
	C290.907257,79.879715 292.672363,81.197327 294.395355,84.645828 
	C420.184479,336.409271 546.078918,588.120117 671.962769,839.836182 
	C672.329834,840.570068 672.642212,841.331787 673.019836,842.059875 
	C674.945740,845.772522 676.553650,845.966980 678.801331,842.462097 
	C682.331238,836.958008 685.615112,831.296814 689.059937,825.737305 
	C703.375122,802.634216 717.736450,779.559570 732.033142,756.445007 
	C746.407898,733.204407 760.706177,709.916626 775.074768,686.672241 
	C789.022034,664.109497 803.026611,641.582214 816.986633,619.027283 
	C832.668030,593.691223 848.329285,568.342651 863.996399,542.997742 
	C882.329773,513.339478 900.650818,483.673584 918.994080,454.021393 
	C938.972839,421.725464 958.971375,389.441833 978.960327,357.152222 
	C998.951477,324.859161 1018.973999,292.585480 1038.922607,260.266174 
	C1058.348389,228.793777 1077.632935,197.234009 1097.100708,165.787781 
	C1113.818726,138.783463 1130.923828,112.015327 1147.321899,84.819733 
	C1150.259766,79.947380 1153.235229,78.900253 1158.303467,78.910271 
	C1226.133789,79.044365 1293.964600,79.044586 1361.794800,78.884613 
	C1365.692017,78.875427 1367.859619,80.174767 1369.662720,83.288849 
	C1381.645630,103.984413 1393.645630,124.670425 1405.732422,145.305466 
	C1416.241943,163.247757 1426.928711,181.086288 1437.435425,199.030167 
	C1448.608887,218.112610 1459.644043,237.275909 1470.774414,256.383667 
	C1480.991943,273.924011 1491.232788,291.450745 1501.505371,308.958832 
	C1512.444458,327.602783 1523.434692,346.216705 1534.399658,364.845459 
	C1548.771973,389.262543 1563.187500,413.654266 1577.496826,438.108032 
	C1588.581177,457.050323 1599.478638,476.101837 1610.556396,495.047913 
	C1621.050903,512.996033 1631.695435,530.856201 1642.230835,548.780457 
	C1652.850952,566.849304 1663.401978,584.958740 1674.011719,603.033691 
	C1688.604370,627.894043 1703.267822,652.713013 1717.817993,677.598145 
	C1729.634888,697.808594 1741.257690,718.132751 1753.096436,738.330383 
	C1768.582397,764.750427 1784.258301,791.059265 1799.737305,817.483521 
	C1814.224487,842.214844 1828.516968,867.060181 1842.980835,891.805359 
	C1852.482666,908.061279 1862.153931,924.218079 1871.696167,940.450623 
	C1872.740112,942.226562 1873.431396,944.210022 1874.568359,946.720154 
	C1872.208252,946.840088 1870.625610,946.990173 1869.043091,946.990662 
	C1830.380615,947.003662 1791.717896,946.965454 1753.055664,947.061157 
	C1749.571289,947.069824 1747.734985,946.198669 1745.797363,942.857239 
	C1726.078247,908.852844 1705.987305,875.064453 1686.080566,841.168518 
	C1666.675293,808.126404 1647.371460,775.024902 1628.008545,741.957947 
	C1612.038208,714.684631 1596.036011,687.430054 1580.072266,660.152893 
	C1576.102417,653.369629 1572.347290,646.456604 1568.207520,639.780518 
	C1567.377319,638.441528 1565.325562,637.709106 1563.690430,637.075439 
	C1562.676025,636.682373 1561.385376,637.001770 1560.218750,637.001770 
	C1354.060547,637.001709 1147.902222,637.019775 941.744019,636.899353 
	C936.488464,636.896240 933.598022,638.419556 930.793579,643.111511 
	C918.194946,664.189514 904.991821,684.905701 892.063110,705.787292 
	C878.018738,728.470947 864.054810,751.204468 850.023315,773.896118 
	C830.050659,806.195862 810.025330,838.463013 790.066162,870.771118 
	C775.009949,895.142761 760.063232,919.582214 744.904480,943.889709 
	C743.972595,945.384033 741.610413,946.865784 739.908386,946.871948 
	C695.249268,947.034180 650.589050,947.064026 605.930969,946.789612 
	C603.954956,946.777527 601.221069,944.077271 600.149231,941.964966 
	C585.461609,913.021301 571.004150,883.960754 556.491028,854.928528 
	C506.543427,755.012390 456.551392,655.118530 406.661224,555.173767 
	C355.379272,452.440857 304.197083,349.658142 252.964676,246.900452 
	C252.744980,246.459808 252.430374,246.066483 252.092834,245.356461 
	C252.025574,245.061859 252.218033,245.030838 252.671051,245.021820 
	C265.869232,245.012817 278.614410,245.012817 291.738892,245.012817 
	C291.118774,244.509766 290.879883,244.146301 290.639740,244.145477 
	C277.726379,244.100754 264.812897,244.086563 251.686356,244.036667 
	C251.473267,244.004105 251.044403,243.959900 251.044403,243.959900 
M1178.678589,243.246124 
	C1178.323242,243.859161 1177.967773,244.472198 1177.166138,245.656036 
	C1119.379028,339.039185 1061.592041,432.422363 1003.321289,526.587036 
	C1169.861938,526.587036 1335.172241,526.587036 1501.209595,526.587036 
	C1500.361572,524.703186 1499.833618,523.191528 1499.045166,521.830811 
	C1490.792480,507.586639 1482.543579,493.339966 1474.204102,479.146545 
	C1463.613403,461.121887 1452.877319,443.182495 1442.317749,425.139832 
	C1427.931152,400.558167 1413.707031,375.881348 1399.311768,351.304779 
	C1384.002808,325.167969 1368.596924,299.087830 1353.187622,273.009949 
	C1347.663086,263.660370 1342.005371,254.389420 1336.500122,244.466827 
	C1335.655640,243.342834 1334.811279,242.218842 1333.792969,240.388000 
	C1332.298218,237.647934 1330.874023,234.866531 1329.296875,232.174789 
	C1321.644043,219.113297 1314.012451,206.038055 1306.179932,193.084702 
	C1305.341431,191.697983 1303.250610,190.226227 1301.732422,190.217407 
	C1272.593872,190.048050 1243.454102,190.056610 1214.315186,190.197281 
	C1212.881836,190.204193 1210.929932,191.400833 1210.113037,192.634949 
	C1205.302246,199.902969 1200.677124,207.298096 1196.141724,214.743164 
	C1190.426758,224.124619 1184.857910,233.595139 1178.678589,243.246124 
z"/>
<path fill="none" opacity="1.000000" stroke="none" 
	d="
M250.573166,243.973953 
	C251.044403,243.959900 251.473267,244.004105 251.754120,244.280853 
	C252.095978,244.715363 252.157013,244.873108 252.218033,245.030838 
	C252.218033,245.030838 252.025574,245.061859 251.932129,245.034729 
	C224.413712,245.007614 196.988724,245.007614 168.511673,245.007614 
	C247.429276,402.853424 325.898071,559.801575 404.366852,716.749695 
	C403.967499,716.948242 403.568146,717.146790 403.168762,717.345398 
	C324.514496,560.025452 245.860245,402.705505 166.507248,243.988007 
	C195.623749,243.988007 222.862839,243.988007 250.573166,243.973953 
z"/>
<path fill="none" opacity="1.000000" stroke="none" 
	d="
M1565.948486,803.048340 
	C1516.286987,803.032166 1466.625366,803.004028 1416.963867,803.002197 
	C1258.312256,802.996216 1099.660767,803.000000 941.009155,803.000000 
	C939.040100,803.000000 937.070984,803.000000 935.101929,803.000000 
	C935.096741,802.666687 935.091553,802.333313 935.086365,802.000000 
	C936.578674,802.000000 938.070923,802.000000 939.563232,802.000000 
	C1146.543579,802.000000 1353.523804,801.999146 1560.504150,802.015076 
	C1562.152954,802.015198 1563.801636,802.243530 1565.718994,802.688538 
	C1565.987671,803.011780 1565.948486,803.048340 1565.948486,803.048340 
z"/>
<path fill="none" opacity="1.000000" stroke="none" 
	d="
M1566.008545,802.994873 
	C1566.342651,803.450256 1566.655884,803.922607 1566.984009,804.697937 
	C1566.998779,805.000916 1566.987427,805.012390 1566.987427,805.012390 
	C1566.642334,804.558228 1566.297241,804.104065 1565.950317,803.349121 
	C1565.948486,803.048340 1565.987671,803.011780 1566.008545,802.994873 
z"/>
<path fill="none" opacity="1.000000" stroke="none" 
	d="
M1567.004272,804.997314 
	C1567.132202,805.460815 1567.254639,805.927795 1567.377075,806.394836 
	C1567.238770,806.104370 1567.100464,805.813843 1566.974854,805.267883 
	C1566.987427,805.012390 1566.998779,805.000916 1567.004272,804.997314 
z"/>
<path fill="none" opacity="1.000000" stroke="none" 
	d="
M1336.408447,245.082581 
	C1342.005371,254.389420 1347.663086,263.660370 1353.187622,273.009949 
	C1368.596924,299.087830 1384.002808,325.167969 1399.311768,351.304779 
	C1413.707031,375.881348 1427.931152,400.558167 1442.317749,425.139832 
	C1452.877319,443.182495 1463.613403,461.121887 1474.204102,479.146545 
	C1482.543579,493.339966 1490.792480,507.586639 1499.045166,521.830811 
	C1499.833618,523.191528 1500.361572,524.703186 1501.209595,526.587036 
	C1335.172241,526.587036 1169.861938,526.587036 1003.321289,526.587036 
	C1061.592041,432.422363 1119.379028,339.039185 1177.808228,245.350525 
	C1231.103027,245.057526 1283.755737,245.070053 1336.408447,245.082581 
z"/>
<path fill="none" opacity="1.000000" stroke="none" 
	d="
M1179.225952,243.027222 
	C1184.857910,233.595139 1190.426758,224.124619 1196.141724,214.743164 
	C1200.677124,207.298096 1205.302246,199.902969 1210.113037,192.634949 
	C1210.929932,191.400833 1212.881836,190.204193 1214.315186,190.197281 
	C1243.454102,190.056610 1272.593872,190.048050 1301.732422,190.217407 
	C1303.250610,190.226227 1305.341431,191.697983 1306.179932,193.084702 
	C1314.012451,206.038055 1321.644043,219.113297 1329.296875,232.174789 
	C1330.874023,234.866531 1332.298218,237.647934 1333.787354,241.130371 
	C1331.940063,242.248901 1330.098755,242.951141 1328.256348,242.953674 
	C1278.579590,243.021973 1228.902832,243.018539 1179.225952,243.027222 
z"/>
<path fill="none" opacity="1.000000" stroke="none" 
	d="
M1178.952271,243.136658 
	C1228.902832,243.018539 1278.579590,243.021973 1328.256348,242.953674 
	C1330.098755,242.951141 1331.940063,242.248901 1333.874268,241.483795 
	C1334.811279,242.218842 1335.655640,243.342834 1336.454346,244.774704 
	C1283.755737,245.070053 1231.103027,245.057526 1178.031250,245.065125 
	C1177.967773,244.472198 1178.323242,243.859161 1178.952271,243.136658 
z"/>
<path fill="none" opacity="1.000000" stroke="none" 
	d="
M252.671051,245.021820 
	C252.157013,244.873108 252.095978,244.715363 251.967194,244.313416 
	C264.812897,244.086563 277.726379,244.100754 290.639740,244.145477 
	C290.879883,244.146301 291.118774,244.509766 291.738892,245.012817 
	C278.614410,245.012817 265.869232,245.012817 252.671051,245.021820 
z"/>
</svg>